<svg width="150" height="150" viewBox="0 0 150 150" fill="none" xmlns="http://www.w3.org/2000/svg">
<g clip-path="url(#clip0_1607_3984)">
<mask id="mask0_1607_3984" style="mask-type:alpha" maskUnits="userSpaceOnUse" x="12" y="5" width="120" height="141">
<path fill-rule="evenodd" clip-rule="evenodd" d="M46.6123 89.6854C61.8064 89.6854 74.1236 77.3681 74.1236 62.174C74.1236 46.9799 61.8064 34.6627 46.6123 34.6627C31.4182 34.6627 19.1009 46.9799 19.1009 62.174C19.1009 77.3681 31.4182 89.6854 46.6123 89.6854ZM46.6123 96.5632C65.6049 96.5632 81.0015 81.1667 81.0015 62.174C81.0015 43.1814 65.6049 27.7849 46.6123 27.7849C27.6196 27.7849 12.2231 43.1814 12.2231 62.174C12.2231 81.1667 27.6196 96.5632 46.6123 96.5632Z" fill="#4307A4"/>
<path fill-rule="evenodd" clip-rule="evenodd" d="M123.295 23.1146C119.425 13.3495 107.047 9.8434 96.7799 13.9126L94.2457 7.51868C106.819 2.53559 123.979 6.17204 129.689 20.5805C135.054 34.1151 130.381 46.8191 121.143 53.4177L117.145 47.821C123.773 43.0869 127.512 33.7537 123.295 23.1146Z" fill="#4307A4"/>
<path fill-rule="evenodd" clip-rule="evenodd" d="M68.0984 88.0117C69.6858 86.9689 71.818 87.4104 72.8608 88.9978L106.595 140.35C107.638 141.937 107.196 144.069 105.609 145.112C104.022 146.155 101.889 145.713 100.847 144.126L67.1124 92.7741C66.0696 91.1867 66.5111 89.0545 68.0984 88.0117Z" fill="#4307A4"/>
<path fill-rule="evenodd" clip-rule="evenodd" d="M30.5879 143.433C32.1753 144.475 34.3074 144.034 35.3502 142.447L69.0845 91.0948C70.1273 89.5075 69.6858 87.3753 68.0984 86.3325C66.511 85.2897 64.3789 85.7312 63.3361 87.3186L29.6018 138.67C28.559 140.258 29.0005 142.39 30.5879 143.433Z" fill="#4307A4"/>
<path fill-rule="evenodd" clip-rule="evenodd" d="M94.5941 7.35276L33.4315 30.3739L35.8544 36.8108L97.017 13.7897L94.5941 7.35276Z" fill="#4307A4"/>
<path fill-rule="evenodd" clip-rule="evenodd" d="M117.71 47.4779L64.69 85.684L68.711 91.264L121.731 53.058L117.71 47.4779Z" fill="#4307A4"/>
<path d="M54.6298 28.9549L105.612 7.31941L125.32 18.994L126.284 43.2L84.7267 74.0466L77.7648 76.8314L75.1942 49.3051L60.3064 30.6686L54.6298 28.9549Z" fill="#4307A4"/>
</mask>
<g mask="url(#mask0_1607_3984)">
<rect x="-4.79987" y="-13.5723" width="156.731" height="167.18" fill="url(#paint0_linear_1607_3984)"/>
</g>
</g>
<defs>
<linearGradient id="paint0_linear_1607_3984" x1="140.254" y1="3.02283" x2="10.566" y2="138.242" gradientUnits="userSpaceOnUse">
<stop stop-color="#5813C9"/>
<stop offset="1" stop-color="#E33EF2"/>
</linearGradient>
<clipPath id="clip0_1607_3984">
<rect width="150" height="150" fill="white"/>
</clipPath>
</defs>
</svg>
