<svg width="52" height="52" viewBox="0 0 52 52" fill="none" xmlns="http://www.w3.org/2000/svg">
<path d="M18.3803 45.25C12.719 45.25 7.4418 43.6034 3 40.7623C6.77124 41.0064 13.4266 40.422 17.5663 36.4734C11.3389 36.1876 8.53046 31.4115 8.16414 29.3704C8.69327 29.5745 11.2168 29.8195 12.6413 29.248C5.47782 27.4518 4.37887 21.1653 4.62308 19.2467C5.96624 20.1856 8.24555 20.5122 9.14099 20.4305C2.46589 15.6544 4.8673 8.46983 6.04765 6.91861C10.8379 13.5552 18.0171 17.2825 26.8987 17.4898C26.7312 16.7554 26.6428 15.9907 26.6428 15.2054C26.6428 9.5691 31.1985 5 36.8182 5C39.7545 5 42.4002 6.24732 44.2575 8.24247C46.2196 7.78268 49.1725 6.70637 50.6161 5.77561C49.8885 8.38818 47.6231 10.5676 46.2528 11.3754C46.2642 11.4029 46.2417 11.3478 46.2528 11.3754C47.4565 11.1933 50.7134 10.5674 52 9.69447C51.3637 11.1622 48.962 13.6025 46.991 14.9687C47.3577 31.1416 34.9838 45.25 18.3803 45.25Z" fill="#47ACDF"/>
</svg>
