<svg width="40" height="40" viewBox="0 0 40 40" fill="none" xmlns="http://www.w3.org/2000/svg">
<g clip-path="url(#clip0_2145_3986)">
<path d="M19.9997 39.1667C30.5851 39.1667 39.1663 30.5855 39.1663 20C39.1663 9.41455 30.5851 0.833344 19.9997 0.833344C9.41422 0.833344 0.833008 9.41455 0.833008 20C0.833008 30.5855 9.41422 39.1667 19.9997 39.1667Z" fill="#DE5833"/>
<path d="M23.7103 37.8534C22.8736 36.2267 22.0736 34.73 21.577 33.74C20.257 31.0967 18.9303 27.37 19.5336 24.9667C19.6436 24.53 18.2903 8.7967 17.3336 8.29004C16.2703 7.72337 13.9603 6.9767 12.7636 6.7767C11.9303 6.64337 11.7403 6.8767 11.3903 6.93004C11.7203 6.96337 13.2903 7.7367 13.5936 7.78004C13.2903 7.9867 12.3936 7.77337 11.8203 8.0267C11.5303 8.16004 11.3136 8.65337 11.3203 8.8867C12.9536 8.72004 15.507 8.88337 17.0203 9.55337C15.817 9.69004 13.9903 9.84337 13.2036 10.2567C10.9236 11.4567 9.91696 14.2667 10.517 17.6334C11.1136 20.9934 13.757 33.25 14.6003 37.3434C15.4403 41.4334 25.1036 40.5767 23.707 37.8534H23.7103Z" fill="#D5D7D8"/>
<path d="M24.9235 38.25C23.9201 36.26 22.8968 34.3567 22.3035 33.1767C20.9801 30.53 19.6601 26.8067 20.2601 24.4034C20.3735 23.9667 20.3735 22.18 20.7368 21.9434C23.5401 20.11 23.3401 21.88 24.4668 21.06C25.0468 20.6367 25.5101 20.1267 25.7135 19.4267C26.4335 16.9 24.7135 12.5034 22.7868 10.58C22.1601 9.95337 21.2001 9.56004 20.1135 9.35337C19.6968 8.78004 19.0235 8.23337 18.0701 7.72337C16.2004 6.74393 14.0605 6.4066 11.9801 6.76337C12.3135 6.7967 13.0668 7.4767 13.3701 7.52003C12.9101 7.83337 11.6868 7.79337 11.6935 8.4867C13.3335 8.32004 15.1268 8.58004 16.6401 9.25337C15.4401 9.3867 14.3201 9.6867 13.5368 10.1C11.2501 11.3 10.6501 13.7034 11.2501 17.07C11.8535 20.4367 14.4968 32.6967 15.3368 36.78C16.1801 40.8667 26.1701 40.7134 24.9268 38.25H24.9235Z" fill="white"/>
<path d="M15.1569 18.5034C15.8546 18.5034 16.4202 17.9378 16.4202 17.24C16.4202 16.5423 15.8546 15.9767 15.1569 15.9767C14.4592 15.9767 13.8936 16.5423 13.8936 17.24C13.8936 17.9378 14.4592 18.5034 15.1569 18.5034Z" fill="#2D4F8E"/>
<path d="M15.7202 17.1467C15.9006 17.1467 16.0469 17.0005 16.0469 16.82C16.0469 16.6396 15.9006 16.4934 15.7202 16.4934C15.5398 16.4934 15.3936 16.6396 15.3936 16.82C15.3936 17.0005 15.5398 17.1467 15.7202 17.1467Z" fill="white"/>
<path d="M23.597 17.5734C24.1953 17.5734 24.6803 17.0883 24.6803 16.49C24.6803 15.8917 24.1953 15.4067 23.597 15.4067C22.9987 15.4067 22.5137 15.8917 22.5137 16.49C22.5137 17.0883 22.9987 17.5734 23.597 17.5734Z" fill="#2D4F8E"/>
<path d="M24.0798 16.41C24.2344 16.41 24.3598 16.2847 24.3598 16.13C24.3598 15.9754 24.2344 15.85 24.0798 15.85C23.9252 15.85 23.7998 15.9754 23.7998 16.13C23.7998 16.2847 23.9252 16.41 24.0798 16.41Z" fill="white"/>
<path d="M15.5207 13.5834C15.5207 13.5834 14.5674 13.1501 13.6441 13.7334C12.7207 14.3134 12.7541 14.9067 12.7541 14.9067C12.7541 14.9067 12.2641 13.8134 13.5707 13.2767C14.8807 12.7434 15.5207 13.5834 15.5207 13.5834V13.5834Z" fill="url(#paint0_linear_2145_3986)"/>
<path d="M24.2498 13.4967C24.2498 13.4967 23.5665 13.1067 23.0331 13.1134C21.9431 13.1267 21.6465 13.6067 21.6465 13.6067C21.6465 13.6067 21.8298 12.46 23.2231 12.69C23.4469 12.731 23.6574 12.8258 23.8363 12.9664C24.0152 13.1069 24.1571 13.2889 24.2498 13.4967Z" fill="url(#paint1_linear_2145_3986)"/>
<path d="M19.0237 22.11C19.1504 21.3434 21.1237 19.9 22.5237 19.81C23.9237 19.7234 24.3571 19.7434 25.5237 19.4634C26.6937 19.1867 29.7037 18.4367 30.5337 18.05C31.3671 17.6667 34.9004 18.24 32.4104 19.63C31.3337 20.2334 28.4304 21.34 26.3537 21.96C24.2804 22.58 23.0237 21.3667 22.3337 22.3867C21.7871 23.1967 22.2237 24.3067 24.7004 24.5367C28.0471 24.8467 31.2537 23.03 31.6071 23.9967C31.9604 24.9634 28.7337 26.1634 26.7671 26.2034C24.8004 26.24 20.8404 24.9034 20.2471 24.49C19.6504 24.08 18.8604 23.1134 19.0237 22.11V22.11Z" fill="#FDD20A"/>
<path d="M20.5374 32.21C20.5374 32.21 15.8374 29.7 15.7608 30.7167C15.6808 31.7367 15.7608 35.8867 16.3074 36.2C16.8574 36.5133 20.7741 34.1667 20.7741 34.1667L20.5408 32.2067L20.5374 32.21ZM22.3374 32.05C22.3374 32.05 25.5508 29.62 26.2574 29.7767C26.9608 29.9367 27.1174 34.9467 26.4908 35.1867C25.8641 35.42 22.1908 33.9167 22.1908 33.9167L22.3408 32.05H22.3374Z" fill="#65BC46"/>
<path d="M19.4006 32.4734C19.4006 34.1167 19.1639 34.8234 19.8673 34.98C20.5739 35.1367 21.9039 34.98 22.3773 34.6667C22.8439 34.3534 22.4539 32.24 22.2973 31.8467C22.1406 31.4534 19.3973 31.7667 19.3973 32.4734H19.4006Z" fill="#43A244"/>
<path d="M19.7014 32.11C19.7014 33.7533 19.4647 34.4567 20.168 34.6133C20.8714 34.7733 22.2014 34.6133 22.6747 34.3C23.1447 33.9867 22.7547 31.8733 22.598 31.48C22.4414 31.0867 19.698 31.4033 19.698 32.1067L19.7014 32.11Z" fill="#65BC46"/>
</g>
<defs>
<linearGradient id="paint0_linear_2145_3986" x1="12.6641" y1="14.0034" x2="15.5207" y2="14.0034" gradientUnits="userSpaceOnUse">
<stop offset="0.01" stop-color="#6176B9"/>
<stop offset="0.69" stop-color="#394A9F"/>
</linearGradient>
<linearGradient id="paint1_linear_2145_3986" x1="21.6465" y1="13.1334" x2="24.2498" y2="13.1334" gradientUnits="userSpaceOnUse">
<stop offset="0.01" stop-color="#6176B9"/>
<stop offset="0.69" stop-color="#394A9F"/>
</linearGradient>
<clipPath id="clip0_2145_3986">
<rect width="40" height="40" fill="white"/>
</clipPath>
</defs>
</svg>
