<svg width="102" height="102" viewBox="0 0 102 102" fill="none" xmlns="http://www.w3.org/2000/svg">
<g clip-path="url(#clip0_2146_4006)">
<path d="M51 102C79.1665 102 102 79.1665 102 51C102 22.8335 79.1665 0 51 0C22.8335 0 0 22.8335 0 51C0 79.1665 22.8335 102 51 102Z" fill="url(#paint0_linear_2146_4006)"/>
<path d="M30.2434 12.1476C30.2796 11.9238 30.3927 11.7208 30.5639 11.5721C31.2783 10.9517 33.752 8.96242 37.2815 7.85012C41.5006 6.52041 44.7735 5.44646 46.6402 5.44646C48.5069 5.44646 49.9644 6.82725 49.0694 8.60434C48.1744 10.3814 45.7169 15.3201 45.1444 21.7092C44.569 28.1273 44.9569 35.6661 44.9526 36.3226C44.9461 37.2815 44.5947 39.0058 42.3444 39.0058C40.0942 39.0058 38.3298 37.1791 35.6195 32.6532C32.909 28.1273 30.5949 21.364 30.3521 18.6407C30.1426 16.2943 30.0615 13.2739 30.2434 12.1476V12.1476Z" fill="white"/>
<path d="M42.3436 39.0819C43.791 39.0819 44.9645 37.9085 44.9645 36.461C44.9645 35.0135 43.791 33.8401 42.3436 33.8401C40.8961 33.8401 39.7227 35.0135 39.7227 36.461C39.7227 37.9085 40.8961 39.0819 42.3436 39.0819Z" fill="url(#paint1_radial_2146_4006)"/>
<path d="M52.5847 6.87007C52.728 6.69425 52.9273 6.57504 53.15 6.53177C54.0789 6.35135 57.1875 6.0218 60.8286 6.6651C65.1849 7.43481 68.5192 8.32758 70.136 9.26053C71.7529 10.1935 72.3253 12.1179 70.6619 13.2099C68.9985 14.3018 64.4018 17.3514 60.7127 22.599C57.0068 27.8706 53.5752 34.5943 53.2432 35.1606C52.7584 35.988 51.592 37.3059 49.643 36.1813C47.6939 35.0567 47.0787 32.5928 46.9931 27.318C46.9073 22.0432 48.283 15.0284 49.4337 12.5484C50.425 10.4113 51.8644 7.7547 52.5847 6.87007V6.87007Z" fill="white"/>
<path d="M50.9149 36.5975C52.3623 36.5975 53.5358 35.4241 53.5358 33.9766C53.5358 32.5291 52.3623 31.3557 50.9149 31.3557C49.4674 31.3557 48.2939 32.5291 48.2939 33.9766C48.2939 35.4241 49.4674 36.5975 50.9149 36.5975Z" fill="url(#paint2_radial_2146_4006)"/>
<path d="M74.2939 13.7403C74.6143 13.5998 74.9751 13.5883 75.3056 13.7035C76.3242 14.059 76.0971 13.6251 81.7441 17.5745C85.3692 20.1098 87.5958 22.8345 88.5362 24.4468C89.4769 26.0591 89.0188 28.0139 87.0327 28.1363C85.0467 28.2587 79.5427 28.625 73.7355 31.3499C67.9021 34.0872 61.5859 38.2213 61.0167 38.5483C60.1851 39.026 58.5186 39.5912 57.3846 37.6477C56.2506 35.7041 56.9395 33.2597 59.4828 28.6377C62.0262 24.0159 66.7019 18.6087 68.9317 17.0266C70.7459 15.7394 73.137 14.248 74.2939 13.7403V13.7403Z" fill="white"/>
<path d="M90.2318 30.3253C90.4558 30.3606 90.6591 30.4731 90.8085 30.6438C91.4317 31.356 93.4296 33.8226 94.5544 37.3481C95.8993 41.5624 96.9849 44.8315 96.9915 46.6982C96.9981 48.5649 95.6226 50.0273 93.8424 49.1387C92.0621 48.25 87.1146 45.8103 80.7236 45.2605C74.3034 44.708 66.7661 45.1229 66.1096 45.1209C65.1507 45.1178 63.425 44.7724 63.417 42.5222C63.4089 40.272 65.2294 38.5012 69.7455 35.7746C74.2619 33.048 81.0168 30.7098 83.7393 30.4571C86.0849 30.2394 89.1049 30.1474 90.2318 30.3253Z" fill="white"/>
<path d="M95.5148 52.6657C95.6902 52.8095 95.8088 53.0091 95.8514 53.2318C96.0289 54.1612 96.5064 57.2995 95.6949 60.9101C94.7252 65.2262 94.0096 68.5956 93.0717 70.2096C92.134 71.8236 90.208 72.3902 89.121 70.7236C88.0338 69.0571 84.9982 64.4514 79.7615 60.7466C74.5009 57.0249 67.7877 53.5732 67.2223 53.2395C66.3963 52.7522 65.0821 51.5821 66.2123 49.6364C67.3427 47.6907 69.8085 47.0828 75.0835 47.0129C80.3586 46.9429 87.369 48.3395 89.8457 49.4975C91.9798 50.4954 94.6323 51.9426 95.5148 52.6657Z" fill="white"/>
<path d="M88.7895 74.543C88.8711 74.7547 88.8757 74.987 88.8025 75.2016C88.4981 76.0975 87.3628 79.0619 84.874 81.8006C81.8989 85.0743 79.6123 87.6508 77.9996 88.5909C76.387 89.5311 74.4324 89.0724 74.3106 87.0862C74.1886 85.1003 73.824 79.5961 71.1009 73.7882C68.3652 67.9539 64.2329 61.6364 63.906 61.0671C63.4286 60.2355 62.8638 58.5687 64.8077 57.4353C66.7517 56.3019 69.196 56.9913 73.8171 59.5361C78.4383 62.0809 83.8438 66.7581 85.4254 68.9882C86.7881 70.9101 88.3795 73.4786 88.7895 74.543Z" fill="white"/>
<path d="M71.9542 90.2042C71.9182 90.428 71.8048 90.631 71.6336 90.7797C70.9192 91.3999 68.4448 93.3886 64.9151 94.5C60.6955 95.8285 57.4223 96.9015 55.5556 96.901C53.6891 96.9004 52.2319 95.5193 53.1274 93.7424C54.0227 91.9655 56.4813 87.0274 57.0557 80.6386C57.6328 74.2207 57.2469 66.6818 57.2513 66.0254C57.2579 65.0665 57.61 63.3422 59.8603 63.3428C62.1104 63.3434 63.8743 65.1705 66.5835 69.6972C69.2927 74.2239 71.605 80.9878 71.8473 83.7111C72.0561 86.0576 72.1366 89.0782 71.9542 90.2042Z" fill="white"/>
<path d="M49.832 95.4547C49.6902 95.6316 49.4917 95.7525 49.2694 95.7974C48.3419 95.9852 45.2709 96.1053 41.5899 95.7242C35.6268 95.1072 33.8865 94.1222 32.2624 93.2022C30.6383 92.2819 30.0509 90.362 31.7057 89.2571C33.3605 88.152 37.9329 85.0667 41.5808 79.79C45.2453 74.4896 48.6241 67.7392 48.9515 67.1702C49.4297 66.3391 50.5857 65.0122 52.5436 66.1212C54.5014 67.2305 55.1359 69.6897 55.2631 74.9635C55.3903 80.2376 54.0696 87.2627 52.9386 89.7519C51.9638 91.8967 50.5455 94.5645 49.832 95.4547V95.4547Z" fill="white"/>
<path d="M27.8384 88.7272C27.6264 88.8076 27.3941 88.8111 27.1798 88.737C26.2854 88.4282 23.3265 87.2789 20.5997 84.777C17.3401 81.7862 14.7747 79.4873 13.8422 77.8703C12.9097 76.2534 13.3778 74.3009 15.3643 74.1885C17.3508 74.076 22.8567 73.7377 28.6775 71.0419C34.5249 68.3342 40.8618 64.232 41.4327 63.908C42.2665 63.4344 43.9359 62.8776 45.0602 64.8268C46.1843 66.776 45.4832 69.217 42.9166 73.8261C40.3498 78.435 35.647 83.8183 33.4092 85.3892C31.481 86.7431 28.905 88.3223 27.8384 88.7272V88.7272Z" fill="white"/>
<path d="M12.2173 71.9991C11.9933 71.9643 11.7895 71.8526 11.6396 71.6825C11.0146 70.9721 9.00936 68.5112 7.87434 64.989C6.51748 60.7786 5.42236 57.5126 5.41024 55.646C5.39812 53.7795 6.76955 52.313 8.55231 53.1965C10.3352 54.0799 15.2897 56.5054 21.6823 57.0368C28.1039 57.5706 35.6402 57.1341 36.2967 57.1341C37.2555 57.1344 38.9821 57.4748 38.9967 59.7249C39.0113 61.9752 37.196 63.7512 32.6877 66.491C28.1794 69.2305 21.431 71.5884 18.7094 71.8489C16.3644 72.0732 13.3446 72.1739 12.2173 71.9991V71.9991Z" fill="white"/>
<path d="M7.02255 49.6006C6.84657 49.4576 6.72691 49.2587 6.68333 49.036C6.50122 48.1075 6.00935 44.9716 6.80377 41.3571C7.7533 37.0365 8.45321 33.6636 9.3834 32.0453C10.3136 30.4269 12.237 29.8514 13.3319 31.5128C14.4267 33.1744 17.4839 37.7658 22.7378 41.4461C28.0156 45.1431 34.7451 48.5635 35.312 48.8944C36.1402 49.3779 37.4599 50.5419 36.3387 52.4928C35.2175 54.4437 32.7544 55.0632 27.4798 55.1577C22.2052 55.2524 15.1883 53.8886 12.7062 52.7421C10.5675 51.7542 7.90841 50.3196 7.02255 49.6006V49.6006Z" fill="white"/>
<path d="M13.4886 27.8019C13.4058 27.5908 13.4 27.3585 13.4716 27.1434C13.7708 26.2457 15.1962 23.5228 17.3601 20.5206C20.8653 15.6571 22.5861 14.6387 24.193 13.6887C25.8 12.7388 27.7572 13.1857 27.8913 15.171C28.0254 17.1562 28.4232 22.6581 31.1817 28.4493C33.9528 34.2669 38.1233 40.559 38.4536 41.1264C38.9361 41.955 39.511 43.6184 37.574 44.7636C35.6371 45.9087 33.1886 45.2341 28.5521 42.7175C23.9155 40.2009 18.4816 35.5566 16.8865 33.3361C15.5121 31.4226 13.9052 28.8638 13.4886 27.8019V27.8019Z" fill="white"/>
<path d="M59.6121 38.9437C61.0596 38.9437 62.233 37.7702 62.233 36.3228C62.233 34.8753 61.0596 33.7018 59.6121 33.7018C58.1646 33.7018 56.9912 34.8753 56.9912 36.3228C56.9912 37.7702 58.1646 38.9437 59.6121 38.9437Z" fill="url(#paint3_radial_2146_4006)"/>
<path d="M65.9266 45.1628C67.3741 45.1628 68.5475 43.9893 68.5475 42.5419C68.5475 41.0944 67.3741 39.921 65.9266 39.921C64.4791 39.921 63.3057 41.0944 63.3057 42.5419C63.3057 43.9893 64.4791 45.1628 65.9266 45.1628Z" fill="url(#paint4_radial_2146_4006)"/>
<path d="M90.8983 71.5102C92.3457 71.5102 93.5192 70.3368 93.5192 68.8893C93.5192 67.4418 92.3457 66.2684 90.8983 66.2684C89.4508 66.2684 88.2773 67.4418 88.2773 68.8893C88.2773 70.3368 89.4508 71.5102 90.8983 71.5102Z" fill="url(#paint5_radial_2146_4006)"/>
<path d="M76.7166 88.9432C78.1641 88.9432 79.3375 87.7698 79.3375 86.3223C79.3375 84.8748 78.1641 83.7014 76.7166 83.7014C75.2691 83.7014 74.0957 84.8748 74.0957 86.3223C74.0957 87.7698 75.2691 88.9432 76.7166 88.9432Z" fill="url(#paint6_radial_2146_4006)"/>
<path d="M55.6318 97.0288C57.0794 97.0288 58.2529 95.8553 58.2529 94.4078C58.2529 92.9602 57.0794 91.7867 55.6318 91.7867C54.1842 91.7867 53.0107 92.9602 53.0107 94.4078C53.0107 95.8553 54.1842 97.0288 55.6318 97.0288Z" fill="url(#paint7_radial_2146_4006)"/>
<path d="M43.4861 95.9741C44.9336 95.9741 46.107 94.8006 46.107 93.3532C46.107 91.9057 44.9336 90.7323 43.4861 90.7323C42.0387 90.7323 40.8652 91.9057 40.8652 93.3532C40.8652 94.8006 42.0387 95.9741 43.4861 95.9741Z" fill="url(#paint8_radial_2146_4006)"/>
<path d="M26.0555 88.163C27.503 88.163 28.6764 86.9896 28.6764 85.5421C28.6764 84.0947 27.503 82.9212 26.0555 82.9212C24.608 82.9212 23.4346 84.0947 23.4346 85.5421C23.4346 86.9896 24.608 88.163 26.0555 88.163Z" fill="url(#paint9_radial_2146_4006)"/>
<path d="M24.825 70.199C26.2725 70.199 27.4459 69.0256 27.4459 67.5781C27.4459 66.1306 26.2725 64.9572 24.825 64.9572C23.3775 64.9572 22.2041 66.1306 22.2041 67.5781C22.2041 69.0256 23.3775 70.199 24.825 70.199Z" fill="url(#paint10_radial_2146_4006)"/>
<path d="M29.8358 55.0931C31.2832 55.0931 32.4567 53.9197 32.4567 52.4722C32.4567 51.0247 31.2832 49.8513 29.8358 49.8513C28.3883 49.8513 27.2148 51.0247 27.2148 52.4722C27.2148 53.9197 28.3883 55.0931 29.8358 55.0931Z" fill="url(#paint11_radial_2146_4006)"/>
<path d="M36.0955 45.3162C37.543 45.3162 38.7164 44.1428 38.7164 42.6953C38.7164 41.2478 37.543 40.0744 36.0955 40.0744C34.648 40.0744 33.4746 41.2478 33.4746 42.6953C33.4746 44.1428 34.648 45.3162 36.0955 45.3162Z" fill="url(#paint12_radial_2146_4006)"/>
</g>
<defs>
<linearGradient id="paint0_linear_2146_4006" x1="14.2888" y1="14.2888" x2="86.4134" y2="86.4135" gradientUnits="userSpaceOnUse">
<stop stop-color="#FDB304"/>
<stop offset="0.2995" stop-color="#FDB005"/>
<stop offset="0.5291" stop-color="#FCA608"/>
<stop offset="0.7352" stop-color="#FA960C"/>
<stop offset="0.9267" stop-color="#F77F13"/>
<stop offset="1" stop-color="#F67416"/>
</linearGradient>
<radialGradient id="paint1_radial_2146_4006" cx="0" cy="0" r="1" gradientUnits="userSpaceOnUse" gradientTransform="translate(41.8686 35.4828) rotate(24.9992) scale(2.62094)">
<stop stop-color="white"/>
<stop offset="0.1019" stop-color="#F0F0F0"/>
<stop offset="0.2967" stop-color="#C9C9C9"/>
<stop offset="0.3665" stop-color="#BABABA"/>
<stop offset="0.4004" stop-color="#B4B4B4"/>
<stop offset="0.8104" stop-color="#696E6F"/>
<stop offset="1" stop-color="#4C5354"/>
</radialGradient>
<radialGradient id="paint2_radial_2146_4006" cx="0" cy="0" r="1" gradientUnits="userSpaceOnUse" gradientTransform="translate(50.5268 32.9611) rotate(29.9851) scale(2.62099)">
<stop stop-color="white"/>
<stop offset="0.1019" stop-color="#F0F0F0"/>
<stop offset="0.2967" stop-color="#C9C9C9"/>
<stop offset="0.3665" stop-color="#BABABA"/>
<stop offset="0.4004" stop-color="#B4B4B4"/>
<stop offset="0.8104" stop-color="#696E6F"/>
<stop offset="1" stop-color="#4C5354"/>
</radialGradient>
<radialGradient id="paint3_radial_2146_4006" cx="0" cy="0" r="1" gradientUnits="userSpaceOnUse" gradientTransform="translate(59.2239 35.3071) rotate(29.9851) scale(2.621)">
<stop stop-color="white"/>
<stop offset="0.1019" stop-color="#F0F0F0"/>
<stop offset="0.2967" stop-color="#C9C9C9"/>
<stop offset="0.3665" stop-color="#BABABA"/>
<stop offset="0.4004" stop-color="#B4B4B4"/>
<stop offset="0.8104" stop-color="#696E6F"/>
<stop offset="1" stop-color="#4C5354"/>
</radialGradient>
<radialGradient id="paint4_radial_2146_4006" cx="0" cy="0" r="1" gradientUnits="userSpaceOnUse" gradientTransform="translate(65.5384 41.5263) rotate(29.985) scale(2.62096)">
<stop stop-color="white"/>
<stop offset="0.1019" stop-color="#F0F0F0"/>
<stop offset="0.2967" stop-color="#C9C9C9"/>
<stop offset="0.3665" stop-color="#BABABA"/>
<stop offset="0.4004" stop-color="#B4B4B4"/>
<stop offset="0.8104" stop-color="#696E6F"/>
<stop offset="1" stop-color="#4C5354"/>
</radialGradient>
<radialGradient id="paint5_radial_2146_4006" cx="0" cy="0" r="1" gradientUnits="userSpaceOnUse" gradientTransform="translate(90.51 67.8737) rotate(29.985) scale(2.62094)">
<stop stop-color="white"/>
<stop offset="0.1019" stop-color="#F0F0F0"/>
<stop offset="0.2967" stop-color="#C9C9C9"/>
<stop offset="0.3665" stop-color="#BABABA"/>
<stop offset="0.4004" stop-color="#B4B4B4"/>
<stop offset="0.8104" stop-color="#696E6F"/>
<stop offset="1" stop-color="#4C5354"/>
</radialGradient>
<radialGradient id="paint6_radial_2146_4006" cx="0" cy="0" r="1" gradientUnits="userSpaceOnUse" gradientTransform="translate(76.3283 85.3067) rotate(29.9851) scale(2.62099)">
<stop stop-color="white"/>
<stop offset="0.1019" stop-color="#F0F0F0"/>
<stop offset="0.2967" stop-color="#C9C9C9"/>
<stop offset="0.3665" stop-color="#BABABA"/>
<stop offset="0.4004" stop-color="#B4B4B4"/>
<stop offset="0.8104" stop-color="#696E6F"/>
<stop offset="1" stop-color="#4C5354"/>
</radialGradient>
<radialGradient id="paint7_radial_2146_4006" cx="0" cy="0" r="1" gradientUnits="userSpaceOnUse" gradientTransform="translate(55.2436 93.3921) rotate(29.9849) scale(2.62106)">
<stop stop-color="white"/>
<stop offset="0.1019" stop-color="#F0F0F0"/>
<stop offset="0.2967" stop-color="#C9C9C9"/>
<stop offset="0.3665" stop-color="#BABABA"/>
<stop offset="0.4004" stop-color="#B4B4B4"/>
<stop offset="0.8104" stop-color="#696E6F"/>
<stop offset="1" stop-color="#4C5354"/>
</radialGradient>
<radialGradient id="paint8_radial_2146_4006" cx="0" cy="0" r="1" gradientUnits="userSpaceOnUse" gradientTransform="translate(43.0979 92.3377) rotate(29.985) scale(2.62093)">
<stop stop-color="white"/>
<stop offset="0.1019" stop-color="#F0F0F0"/>
<stop offset="0.2967" stop-color="#C9C9C9"/>
<stop offset="0.3665" stop-color="#BABABA"/>
<stop offset="0.4004" stop-color="#B4B4B4"/>
<stop offset="0.8104" stop-color="#696E6F"/>
<stop offset="1" stop-color="#4C5354"/>
</radialGradient>
<radialGradient id="paint9_radial_2146_4006" cx="0" cy="0" r="1" gradientUnits="userSpaceOnUse" gradientTransform="translate(25.6672 84.5266) rotate(29.9851) scale(2.62096)">
<stop stop-color="white"/>
<stop offset="0.1019" stop-color="#F0F0F0"/>
<stop offset="0.2967" stop-color="#C9C9C9"/>
<stop offset="0.3665" stop-color="#BABABA"/>
<stop offset="0.4004" stop-color="#B4B4B4"/>
<stop offset="0.8104" stop-color="#696E6F"/>
<stop offset="1" stop-color="#4C5354"/>
</radialGradient>
<radialGradient id="paint10_radial_2146_4006" cx="0" cy="0" r="1" gradientUnits="userSpaceOnUse" gradientTransform="translate(24.4368 66.5626) rotate(29.9851) scale(2.62099)">
<stop stop-color="white"/>
<stop offset="0.1019" stop-color="#F0F0F0"/>
<stop offset="0.2967" stop-color="#C9C9C9"/>
<stop offset="0.3665" stop-color="#BABABA"/>
<stop offset="0.4004" stop-color="#B4B4B4"/>
<stop offset="0.8104" stop-color="#696E6F"/>
<stop offset="1" stop-color="#4C5354"/>
</radialGradient>
<radialGradient id="paint11_radial_2146_4006" cx="0" cy="0" r="1" gradientUnits="userSpaceOnUse" gradientTransform="translate(29.4475 51.4568) rotate(29.9851) scale(2.621)">
<stop stop-color="white"/>
<stop offset="0.1019" stop-color="#F0F0F0"/>
<stop offset="0.2967" stop-color="#C9C9C9"/>
<stop offset="0.3665" stop-color="#BABABA"/>
<stop offset="0.4004" stop-color="#B4B4B4"/>
<stop offset="0.8104" stop-color="#696E6F"/>
<stop offset="1" stop-color="#4C5354"/>
</radialGradient>
<radialGradient id="paint12_radial_2146_4006" cx="0" cy="0" r="1" gradientUnits="userSpaceOnUse" gradientTransform="translate(35.7073 41.6797) rotate(29.9851) scale(2.62093)">
<stop stop-color="white"/>
<stop offset="0.1019" stop-color="#F0F0F0"/>
<stop offset="0.2967" stop-color="#C9C9C9"/>
<stop offset="0.3665" stop-color="#BABABA"/>
<stop offset="0.4004" stop-color="#B4B4B4"/>
<stop offset="0.8104" stop-color="#696E6F"/>
<stop offset="1" stop-color="#4C5354"/>
</radialGradient>
<clipPath id="clip0_2146_4006">
<rect width="102" height="102" fill="white"/>
</clipPath>
</defs>
</svg>
