<svg width="52" height="52" viewBox="0 0 52 52" fill="none" xmlns="http://www.w3.org/2000/svg">
<path d="M25.5128 48.7501C36.0132 48.7501 44.5255 40.5598 44.5255 30.4565C44.5255 20.3532 36.0132 12.1629 25.5128 12.1629C15.0123 12.1629 6.5 20.3532 6.5 30.4565C6.5 40.5598 15.0123 48.7501 25.5128 48.7501Z" fill="#FFCC00"/>
<path fill-rule="evenodd" clip-rule="evenodd" d="M35.2628 11.8251V28.8916C35.2628 30.6092 35.1341 32.211 34.8934 33.028C34.2853 35.0812 32.9674 36.8733 31.1576 38.1085C29.3477 39.3436 27.1541 39.9478 24.9391 39.8212C22.7242 39.6946 20.6203 38.8449 18.9751 37.4123C17.3299 35.9797 16.2418 34.0501 15.8905 31.942C15.5393 29.834 15.9458 27.6737 17.0431 25.8181C18.1403 23.9624 19.8626 22.5224 21.9254 21.7359C23.9882 20.9494 26.2682 20.8634 28.3886 21.4922C30.5091 22.121 32.3432 23.4269 33.588 25.1943L33.3139 23.586V3.25L45.5005 7.002V14.9772L35.2628 11.8251Z" fill="#FF3333"/>
</svg>
