<svg width="52" height="52" viewBox="0 0 52 52" fill="none" xmlns="http://www.w3.org/2000/svg">
<path fill-rule="evenodd" clip-rule="evenodd" d="M9.2885 47.4789L3.69953 40.5164C2.35484 38.8412 1.625 36.7812 1.625 34.661V9.44935C1.625 6.27354 4.16583 3.63833 7.44366 3.41453L33.3647 1.6448C35.2479 1.51623 37.1196 2.01677 38.6665 3.06264L47.7738 9.22011C49.404 10.3223 50.375 12.1241 50.375 14.0469V42.7102C50.375 45.8181 47.8767 48.3913 44.6674 48.5889L15.8979 50.3598C13.3369 50.5175 10.8615 49.4385 9.2885 47.4789Z" fill="white"/>
<path d="M18.2786 22.0654V21.7353C18.2786 20.8986 18.9488 20.2047 19.8124 20.147L26.1033 19.727L34.8032 32.5382V21.2942L32.5639 20.9957V20.8389C32.5639 19.9924 33.2493 19.2939 34.124 19.2491L39.8481 18.9559V19.7796C39.8481 20.1663 39.5605 20.4971 39.1664 20.5637L37.7889 20.7967V39.006L36.0602 39.6005C34.6159 40.0972 33.0081 39.5655 32.1813 38.3179L23.7353 25.5729V37.7373L26.335 38.2348L26.2988 38.476C26.1853 39.2313 25.5332 39.8025 24.7443 39.8376L18.2786 40.1254C18.1932 39.3132 18.8019 38.5865 19.6417 38.4983L20.4922 38.409V22.1898L18.2786 22.0654Z" fill="black"/>
<path fill-rule="evenodd" clip-rule="evenodd" d="M33.5972 4.82102L7.67613 6.59076C6.12347 6.69676 4.91992 7.94503 4.91992 9.44936V34.661C4.91992 36.0745 5.40648 37.4478 6.30294 38.5646L11.8919 45.5271C12.7955 46.6529 14.2176 47.2727 15.6888 47.1821L44.4583 45.4112C45.9328 45.3204 47.0807 44.1381 47.0807 42.7102V14.0469C47.0807 13.1635 46.6346 12.3356 45.8855 11.8292L36.7782 5.67173C35.8501 5.04421 34.7271 4.74388 33.5972 4.82102ZM8.9615 9.84262C8.60098 9.57571 8.77256 9.01964 9.22545 8.98715L33.7715 7.22655C34.5536 7.17046 35.3308 7.38582 35.9632 7.83393L40.8882 11.3232C41.0752 11.4557 40.9875 11.7417 40.756 11.7542L14.7618 13.168C13.9751 13.2107 13.1986 12.9796 12.5731 12.5166L8.9615 9.84262ZM13.5425 17.5999C13.5425 16.7554 14.2248 16.0579 15.0972 16.0104L42.5804 14.5136C43.4307 14.4673 44.1464 15.1212 44.1464 15.9442V40.7636C44.1464 41.6065 43.4666 42.3033 42.5959 42.3529L15.2867 43.9067C14.3405 43.9606 13.5425 43.2335 13.5425 42.3174V17.5999Z" fill="black"/>
</svg>
