<svg width="52" height="52" viewBox="0 0 52 52" fill="none" xmlns="http://www.w3.org/2000/svg">
<path d="M3.25 19.4278C3.25 13.765 3.25 10.9336 4.35205 8.77076C5.32143 6.86824 6.86824 5.32143 8.77076 4.35205C10.9336 3.25 13.765 3.25 19.4278 3.25H32.5722C38.235 3.25 41.0664 3.25 43.2292 4.35205C45.1318 5.32143 46.6786 6.86824 47.648 8.77076C48.75 10.9336 48.75 13.765 48.75 19.4278V32.5722C48.75 38.235 48.75 41.0664 47.648 43.2292C46.6786 45.1318 45.1318 46.6786 43.2292 47.648C41.0664 48.75 38.235 48.75 32.5722 48.75H19.4278C13.765 48.75 10.9336 48.75 8.77076 47.648C6.86824 46.6786 5.32143 45.1318 4.35205 43.2292C3.25 41.0664 3.25 38.235 3.25 32.5722V19.4278Z" fill="white"/>
<path d="M26.0036 20.2327L20.3796 10.3077C20.5664 10.1176 20.7812 9.99287 20.9961 9.90906C19.3376 10.4549 18.5766 12.3172 18.5766 12.3172L8.30254 30.444C8.15797 31.0123 8.11781 31.5254 8.13588 31.9772H19.3496L26.0036 20.2327Z" fill="#34A853"/>
<path d="M26.0029 20.2327L32.6569 31.9772H43.8706C43.8887 31.5254 43.8485 31.0123 43.704 30.444L33.4299 12.3172C33.4299 12.3172 32.6669 10.4549 31.0105 9.90906C31.2233 9.99287 31.4401 10.1176 31.6269 10.3077L26.0029 20.2327Z" fill="#FBBC05"/>
<path d="M26.0028 20.2332L31.6268 10.3082C31.4401 10.118 31.2232 9.99333 31.0104 9.90952C30.7654 9.82979 30.5024 9.77664 30.2173 9.76233H29.9201H22.0856H21.7884C21.5053 9.77459 21.2403 9.82775 20.9953 9.90952C20.7825 9.99333 20.5656 10.118 20.3789 10.3082L26.0028 20.2332Z" fill="#188038"/>
<path d="M19.3509 31.9773L13.7912 41.7899C13.7912 41.7899 13.6064 41.7 13.3555 41.5139C14.1445 42.1211 14.9115 42.2499 14.9115 42.2499H36.7467C37.9514 42.2499 38.2024 41.7899 38.2024 41.7899C38.2064 41.7879 38.2084 41.7858 38.2124 41.7838L32.6568 31.9773H19.3509Z" fill="#4285F4"/>
<path d="M19.3514 31.9773H8.1377C8.19391 33.3102 8.77217 34.0891 8.77217 34.0891L9.19382 34.8209C9.22393 34.8638 9.242 34.8884 9.242 34.8884L10.1596 36.4993L12.2196 40.085C12.2799 40.2301 12.3501 40.363 12.4244 40.4897C12.4525 40.5327 12.4786 40.5797 12.5087 40.6206C12.5168 40.6328 12.5248 40.6451 12.5328 40.6574C12.7878 41.0172 13.0729 41.2952 13.3581 41.5139C13.609 41.702 13.7938 41.7899 13.7938 41.7899L19.3514 31.9773Z" fill="#1967D2"/>
<path d="M32.6572 31.9773H43.871C43.8147 33.3102 43.2365 34.0891 43.2365 34.0891L42.8148 34.8209C42.7847 34.8638 42.7667 34.8884 42.7667 34.8884L41.8491 36.4993L39.789 40.085C39.7288 40.2301 39.6585 40.363 39.5842 40.4897C39.5561 40.5327 39.53 40.5797 39.4999 40.6206C39.4919 40.6328 39.4838 40.6451 39.4758 40.6574C39.2208 41.0172 38.9357 41.2952 38.6506 41.5139C38.3996 41.702 38.2149 41.7899 38.2149 41.7899L32.6572 31.9773Z" fill="#EA4335"/>
</svg>
