<svg width="52" height="52" viewBox="0 0 52 52" fill="none" xmlns="http://www.w3.org/2000/svg">
<circle cx="26" cy="26" r="22.75" fill="white"/>
<path d="M26 48.75C38.5645 48.75 48.75 38.5645 48.75 26C48.75 13.4355 38.5645 3.25 26 3.25C13.4355 3.25 3.25 13.4355 3.25 26C3.25 35.2302 8.74688 43.1765 16.6456 46.744C16.6563 46.4979 16.6682 46.2722 16.6784 46.0786C16.6923 45.8149 16.7031 45.6108 16.7031 45.4961C16.7031 44.8125 17.168 41.4219 17.168 41.4219L20.0117 29.7461C19.5742 29.0351 19.2461 27.5312 19.2461 26.3828C19.2461 21.0781 22.1992 19.9297 24.0039 19.9297C26.3008 19.9297 26.8203 22.4179 26.8203 24.25C26.8203 25.219 26.3176 26.7359 25.8004 28.2968C25.2521 29.9511 24.6875 31.6549 24.6875 32.8086C24.6875 35.0508 26.9023 36.1719 28.4336 36.1719C32.4805 36.1719 36.1992 31.0859 36.1992 26C36.1992 20.914 33.8203 14.7617 26.0273 14.7617C18.2344 14.7617 14.7344 20.6953 14.7344 25.2344C14.7344 28.2969 15.8828 30.539 16.457 30.9219C16.6211 31.0677 16.9 31.518 16.7031 32.1523C16.5063 32.7867 16.1471 34.2031 15.9922 34.832C15.974 34.9778 15.8008 35.2258 15.2539 35.0508C14.5703 34.832 10.2227 32.0976 10.2227 25.2344C10.2227 18.3711 15.6094 10.3867 26.0273 10.3867C36.4453 10.3867 41.7773 17.3867 41.7773 26C41.7773 34.6133 34.8047 40.1094 29.5 40.1094C25.2563 40.1094 23.5938 38.2135 23.293 37.2656L21.6797 43.4179C21.2988 44.4386 20.5881 46.2731 19.7119 47.8698C21.709 48.443 23.8186 48.75 26 48.75Z" fill="#BB0F23"/>
</svg>
