<svg width="52" height="52" viewBox="0 0 52 52" fill="none" xmlns="http://www.w3.org/2000/svg">
<path d="M3.25 19.4278C3.25 13.765 3.25 10.9336 4.35205 8.77076C5.32143 6.86824 6.86824 5.32143 8.77076 4.35205C10.9336 3.25 13.765 3.25 19.4278 3.25H32.5722C38.235 3.25 41.0664 3.25 43.2292 4.35205C45.1318 5.32143 46.6786 6.86824 47.648 8.77076C48.75 10.9336 48.75 13.765 48.75 19.4278V32.5722C48.75 38.235 48.75 41.0664 47.648 43.2292C46.6786 45.1318 45.1318 46.6786 43.2292 47.648C41.0664 48.75 38.235 48.75 32.5722 48.75H19.4278C13.765 48.75 10.9336 48.75 8.77076 47.648C6.86824 46.6786 5.32143 45.1318 4.35205 43.2292C3.25 41.0664 3.25 38.235 3.25 32.5722V19.4278Z" fill="white"/>
<path d="M35.8339 13.8498L26.1048 21.4425L16.1533 13.8498V13.8518L16.1653 13.8621V24.4939L25.9926 32.2508L35.8339 24.7935V13.8498Z" fill="#EA4335"/>
<path d="M38.388 12.0029L35.833 13.8497V24.7935L43.8727 18.6208V14.9025C43.8727 14.9025 42.8968 9.59169 38.388 12.0029Z" fill="#FBBC05"/>
<path d="M35.833 24.7937V38.9879H41.9951C41.9951 38.9879 43.7485 38.8073 43.8748 36.8086V18.621L35.833 24.7937Z" fill="#34A853"/>
<path d="M16.1658 38.9999V24.4938L16.1533 24.4835L16.1658 38.9999Z" fill="#C5221F"/>
<path d="M16.1527 13.8519L13.6117 12.0153C9.10291 9.60414 8.125 14.9129 8.125 14.9129V18.6312L16.1527 24.4837V13.8519Z" fill="#C5221F"/>
<path d="M16.1533 13.8518V24.4836L16.1658 24.4939V13.8621L16.1533 13.8518Z" fill="#C5221F"/>
<path d="M8.125 18.6332V36.8207C8.24924 38.8215 10.0047 39 10.0047 39H16.1667L16.1527 24.4836L8.125 18.6332Z" fill="#4285F4"/>
</svg>
