<svg width="52" height="52" viewBox="0 0 52 52" fill="none" xmlns="http://www.w3.org/2000/svg">
<path d="M0 12C0 5.37258 5.37258 0 12 0H40C46.6274 0 52 5.37258 52 12V40C52 46.6274 46.6274 52 40 52H12C5.37258 52 0 46.6274 0 40V12Z" fill="#2789F6"/>
<path d="M37.2504 29.7929C36.9003 29.3179 36.8219 28.8371 37.0132 28.3499C37.4905 27.0502 44.4427 18.795 41.5466 18.795C39.5564 18.8214 37.1631 18.795 35.2551 18.795C34.9009 18.8812 34.6717 19.0671 34.5283 19.4453C33.4126 22.0179 32.0473 25.1574 30.0464 27.1751C29.7831 27.3874 29.619 27.3783 29.3191 27.2998C27.9155 25.8221 29.4121 20.7595 28.5586 18.7591C28.3903 18.3675 28.0221 18.1907 27.6454 18.0911C25.7398 17.6369 21.3877 17.9072 20.6776 18.8214C20.4746 19.0827 20.4463 19.2253 20.5929 19.2488C21.2694 19.3555 21.7484 19.6109 22.0303 20.0146C22.5621 21.1857 22.954 27.4242 21.3877 27.4242C19.8214 27.4242 17.2957 21.3018 16.6019 19.6046C16.4172 19.0936 15.9472 18.8006 15.4519 18.7141L10.8181 18.7495C10.0036 18.7495 9.54838 19.1513 9.83707 19.9608C12.2506 25.9517 17.5321 37.5641 25.6326 37.2734C26.4441 37.2734 27.8401 37.5849 28.4739 36.8815C29.3448 35.726 28.2826 33.6681 29.7761 32.8833C30.1527 32.6829 30.5431 32.8509 30.8667 33.0973C32.5279 34.3622 33.4099 36.5823 35.4585 37.2563C35.8187 37.375 36.1342 37.4047 36.4052 37.3453L40.7345 37.2742C41.5382 37.2742 42.33 36.9166 42.1637 35.9557C41.5325 33.8951 39.0175 31.7768 37.2504 29.7929Z" fill="white"/>
</svg>
