<svg width="52" height="52" viewBox="0 0 52 52" fill="none" xmlns="http://www.w3.org/2000/svg">
<path d="M3.25 19.4278C3.25 13.765 3.25 10.9336 4.35205 8.77076C5.32143 6.86824 6.86824 5.32143 8.77076 4.35205C10.9336 3.25 13.765 3.25 19.4278 3.25H32.5722C38.235 3.25 41.0664 3.25 43.2292 4.35205C45.1318 5.32143 46.6786 6.86824 47.648 8.77076C48.75 10.9336 48.75 13.765 48.75 19.4278V32.5722C48.75 38.235 48.75 41.0664 47.648 43.2292C46.6786 45.1318 45.1318 46.6786 43.2292 47.648C41.0664 48.75 38.235 48.75 32.5722 48.75H19.4278C13.765 48.75 10.9336 48.75 8.77076 47.648C6.86824 46.6786 5.32143 45.1318 4.35205 43.2292C3.25 41.0664 3.25 38.235 3.25 32.5722V19.4278Z" fill="white"/>
<path d="M39.8 9.75H34.5166V17.4058H42.2475V11.9087C42.2496 11.9087 41.8655 9.95877 39.8 9.75Z" fill="#1967D2"/>
<path d="M34.5186 42.2144V42.2332V42.2499L42.2495 34.5941H42.1802L34.5186 42.2144Z" fill="#1967D2"/>
<path d="M42.2493 34.5938V34.5252L42.1807 34.5938H42.2493Z" fill="#FBBC05"/>
<path d="M42.2495 17.4059H34.5186V34.5255H42.2495V17.4059Z" fill="#FBBC05"/>
<path d="M42.1802 34.5941H34.5186V42.2144L42.1802 34.5941Z" fill="#EA4335"/>
<path d="M34.5186 34.5938H42.1802L42.2495 34.5252H34.5186V34.5938Z" fill="#EA4335"/>
<path d="M34.5 42.2333H34.5187V42.2146L34.5 42.2333Z" fill="#34A853"/>
<path d="M17.3066 34.5252V42.2332H34.5002L34.5191 34.5252H17.3066Z" fill="#34A853"/>
<path d="M34.5187 34.5941V34.5252L34.5 42.2332L34.5187 42.2144V34.5941Z" fill="#34A853"/>
<path d="M9.75 34.5252V39.8845C9.81927 41.6236 11.7 42.2332 11.7 42.2332H17.3067V34.5252H9.75Z" fill="#188038"/>
<path d="M17.3067 17.4059H34.5191V9.75012H11.9183C11.9183 9.75012 9.88854 9.9589 9.75 12.1155V34.5254H17.3067V17.4059Z" fill="#4285F4"/>
<path d="M22.9378 31.0601C22.544 31.0601 22.1643 31.0088 21.7987 30.9062C21.4424 30.8036 21.1142 30.6498 20.8142 30.4446C20.5142 30.2301 20.2469 29.9644 20.0125 29.6473C19.7875 29.3303 19.6141 28.9619 19.4922 28.5423L21.222 27.8569C21.3439 28.3231 21.5502 28.6775 21.8408 28.9199C22.1315 29.1531 22.4972 29.2696 22.9378 29.2696C23.1347 29.2696 23.3222 29.2417 23.5004 29.1857C23.6785 29.1204 23.8332 29.0318 23.9645 28.9199C24.0957 28.808 24.1989 28.6775 24.2739 28.5283C24.3583 28.3697 24.4005 28.1926 24.4005 27.9967C24.4005 27.5864 24.2458 27.2647 23.9364 27.0316C23.6363 26.7984 23.2191 26.6819 22.6847 26.6819H21.8549V25.0173H22.6144C22.8019 25.0173 22.9847 24.994 23.1628 24.9474C23.341 24.9007 23.4957 24.8308 23.6269 24.7376C23.7676 24.635 23.8754 24.5091 23.9504 24.3599C24.0348 24.2013 24.077 24.0195 24.077 23.8143C24.077 23.4973 23.9645 23.2408 23.7395 23.045C23.5144 22.8399 23.2097 22.7373 22.8253 22.7373C22.4128 22.7373 22.094 22.8492 21.869 23.073C21.6533 23.2875 21.5033 23.5299 21.4189 23.8004L19.7313 23.115C19.8157 22.8818 19.9422 22.644 20.111 22.4016C20.2798 22.1498 20.4907 21.926 20.7439 21.7301C21.0064 21.525 21.3111 21.3618 21.658 21.2406C22.0049 21.11 22.4034 21.0447 22.8534 21.0447C23.3129 21.0447 23.7301 21.11 24.1051 21.2406C24.4895 21.3711 24.8177 21.553 25.0896 21.7861C25.3615 22.0099 25.5724 22.2803 25.7225 22.5974C25.8725 22.9051 25.9475 23.2408 25.9475 23.6045C25.9475 23.8843 25.91 24.1361 25.835 24.3599C25.7693 24.5837 25.6803 24.7842 25.5678 24.9614C25.4552 25.1385 25.324 25.2924 25.174 25.423C25.0333 25.5442 24.888 25.6421 24.738 25.7167V25.8286C25.188 26.0058 25.5584 26.2902 25.849 26.6819C26.1491 27.0735 26.2991 27.5678 26.2991 28.1646C26.2991 28.5842 26.2194 28.9712 26.06 29.3256C25.9006 29.6706 25.6709 29.9737 25.3709 30.2348C25.0802 30.4959 24.7286 30.6964 24.3161 30.8363C23.9035 30.9855 23.4441 31.0601 22.9378 31.0601Z" fill="#4285F4"/>
<path d="M29.6576 30.8363V23.4227L27.9559 24.1361L27.2808 22.5834L30.1076 21.2685H31.4999V30.8363H29.6576Z" fill="#4285F4"/>
</svg>
