<svg width="52" height="52" viewBox="0 0 52 52" fill="none" xmlns="http://www.w3.org/2000/svg">
<path d="M3.64732 16.1543C3.85618 12.9388 6.44141 10.4188 9.65976 10.2593C14.3201 10.0285 20.9811 9.75 26 9.75C31.0189 9.75 37.6799 10.0285 42.3402 10.2593C45.5586 10.4188 48.1438 12.9388 48.3527 16.1543C48.5528 19.235 48.75 23.0257 48.75 26C48.75 28.9743 48.5528 32.765 48.3527 35.8457C48.1438 39.0612 45.5586 41.5812 42.3402 41.7407C37.6799 41.9715 31.0189 42.25 26 42.25C20.9811 42.25 14.3201 41.9715 9.65976 41.7407C6.44142 41.5812 3.85618 39.0612 3.64732 35.8457C3.44722 32.765 3.25 28.9743 3.25 26C3.25 23.0257 3.44722 19.235 3.64732 16.1543Z" fill="#FC0D1B"/>
<path d="M21.125 19.5V32.5L34.125 26L21.125 19.5Z" fill="white"/>
</svg>
