<svg width="52" height="52" viewBox="0 0 52 52" fill="none" xmlns="http://www.w3.org/2000/svg">
<rect x="3.25" y="3.25" width="45.5" height="45.5" rx="6" fill="url(#paint0_radial_1227_21020)"/>
<rect x="3.25" y="3.25" width="45.5" height="45.5" rx="6" fill="url(#paint1_radial_1227_21020)"/>
<rect x="3.25" y="3.25" width="45.5" height="45.5" rx="6" fill="url(#paint2_radial_1227_21020)"/>
<path d="M37.375 17.0625C37.375 18.4087 36.2837 19.5 34.9375 19.5C33.5913 19.5 32.5 18.4087 32.5 17.0625C32.5 15.7163 33.5913 14.625 34.9375 14.625C36.2837 14.625 37.375 15.7163 37.375 17.0625Z" fill="white"/>
<path fill-rule="evenodd" clip-rule="evenodd" d="M26 34.125C30.4873 34.125 34.125 30.4873 34.125 26C34.125 21.5127 30.4873 17.875 26 17.875C21.5127 17.875 17.875 21.5127 17.875 26C17.875 30.4873 21.5127 34.125 26 34.125ZM26 30.875C28.6924 30.875 30.875 28.6924 30.875 26C30.875 23.3076 28.6924 21.125 26 21.125C23.3076 21.125 21.125 23.3076 21.125 26C21.125 28.6924 23.3076 30.875 26 30.875Z" fill="white"/>
<path fill-rule="evenodd" clip-rule="evenodd" d="M9.75 25.35C9.75 19.8895 9.75 17.1592 10.8127 15.0736C11.7475 13.239 13.239 11.7475 15.0736 10.8127C17.1592 9.75 19.8895 9.75 25.35 9.75H26.65C32.1105 9.75 34.8408 9.75 36.9264 10.8127C38.761 11.7475 40.2526 13.239 41.1873 15.0736C42.25 17.1592 42.25 19.8895 42.25 25.35V26.65C42.25 32.1105 42.25 34.8408 41.1873 36.9264C40.2526 38.761 38.761 40.2526 36.9264 41.1873C34.8408 42.25 32.1105 42.25 26.65 42.25H25.35C19.8895 42.25 17.1592 42.25 15.0736 41.1873C13.239 40.2526 11.7475 38.761 10.8127 36.9264C9.75 34.8408 9.75 32.1105 9.75 26.65V25.35ZM25.35 13H26.65C29.4339 13 31.3263 13.0025 32.7891 13.122C34.214 13.2385 34.9426 13.4495 35.4509 13.7085C36.674 14.3316 37.6684 15.326 38.2915 16.5491C38.5505 17.0574 38.7615 17.786 38.878 19.2109C38.9975 20.6737 39 22.5661 39 25.35V26.65C39 29.4339 38.9975 31.3263 38.878 32.7891C38.7615 34.214 38.5505 34.9426 38.2915 35.4509C37.6684 36.674 36.674 37.6684 35.4509 38.2915C34.9426 38.5505 34.214 38.7615 32.7891 38.878C31.3263 38.9975 29.4339 39 26.65 39H25.35C22.5661 39 20.6737 38.9975 19.2109 38.878C17.786 38.7615 17.0574 38.5505 16.5491 38.2915C15.326 37.6684 14.3316 36.674 13.7085 35.4509C13.4495 34.9426 13.2385 34.214 13.122 32.7891C13.0025 31.3263 13 29.4339 13 26.65V25.35C13 22.5661 13.0025 20.6737 13.122 19.2109C13.2385 17.786 13.4495 17.0574 13.7085 16.5491C14.3316 15.326 15.326 14.3316 16.5491 13.7085C17.0574 13.4495 17.786 13.2385 19.2109 13.122C20.6737 13.0025 22.5661 13 25.35 13Z" fill="white"/>
<defs>
<radialGradient id="paint0_radial_1227_21020" cx="0" cy="0" r="1" gradientUnits="userSpaceOnUse" gradientTransform="translate(19.5 37.375) rotate(-55.3758) scale(41.4694)">
<stop stop-color="#B13589"/>
<stop offset="0.79309" stop-color="#C62F94"/>
<stop offset="1" stop-color="#8A3AC8"/>
</radialGradient>
<radialGradient id="paint1_radial_1227_21020" cx="0" cy="0" r="1" gradientUnits="userSpaceOnUse" gradientTransform="translate(17.875 50.375) rotate(-65.1363) scale(36.7156)">
<stop stop-color="#E0E8B7"/>
<stop offset="0.444662" stop-color="#FB8A2E"/>
<stop offset="0.71474" stop-color="#E2425C"/>
<stop offset="1" stop-color="#E2425C" stop-opacity="0"/>
</radialGradient>
<radialGradient id="paint2_radial_1227_21020" cx="0" cy="0" r="1" gradientUnits="userSpaceOnUse" gradientTransform="translate(0.812503 4.875) rotate(-8.1301) scale(63.1977 13.5173)">
<stop offset="0.156701" stop-color="#406ADC"/>
<stop offset="0.467799" stop-color="#6A45BE"/>
<stop offset="1" stop-color="#6A45BE" stop-opacity="0"/>
</radialGradient>
</defs>
</svg>
